<?xml version="1.0" encoding="utf-8"?>
<!-- Generator: Adobe Illustrator 24.0.2, SVG Export Plug-In . SVG Version: 6.00 Build 0)  -->
<svg version="1.1" id="Layer_1" xmlns="http://www.w3.org/2000/svg" xmlns:xlink="http://www.w3.org/1999/xlink" x="0px" y="0px"
	 viewBox="0 0 192 192" style="enable-background:new 0 0 192 192;" xml:space="preserve">
<style type="text/css">
	.st0{fill:none;stroke:#7FAFDE;stroke-width:10;stroke-linecap:round;stroke-linejoin:round;}
	.st1{fill:#87AAD5;stroke:#7FAFDE;stroke-width:10;stroke-linecap:round;stroke-linejoin:round;}
	.st2{fill:#7FAFDE;stroke:#7FAFDE;stroke-width:10;stroke-linecap:round;stroke-linejoin:round;}
</style>
<path class="st0" d="M76.92,129.78H37.75c0,0-25.86-2.61-29.25-26.38s16.45-38.91,29.78-35.78c0,0,6.92-31.99,31.47-35.91
	s40.22,15.67,42.58,28.21c0,0,25.33,0.78,25.07,26.64"/>
<path class="st0" d="M87.13,86.65c1-4.33,5.31-7.03,9.64-6.03c3,0.69,5.34,3.03,6.03,6.03"/>
<path class="st0" d="M66.22,99.22c2.41,4.34,7.05,6.96,12.01,6.79c7.19-0.28,10.78-6.44,10.97-6.79"/>
<path class="st0" d="M53.07,86.82c1-4.33,5.31-7.03,9.64-6.03c3,0.69,5.34,3.03,6.03,6.03"/>
<path class="st0" d="M85.28,122.47c0,0,20.63,15.15,44.66,15.4c24.03,0.25,23.25,11.75,23.25,11.75s1.31,9.93-7.05,11.23
	s-13.84-1.83-12.01-8.87"/>
<path class="st0" d="M92.46,139.31c0,0,16.98,7.31,19.07,8.87s4.96,5.49,1.56,10.72c-3.4,5.23-9.66,2.09-10.97,0"/>
<path class="st0" d="M102.91,120.24c0,0,10.97,7.05,31.87,5.22c20.9-1.83,19.85-14.63,19.85-14.63s0.78-9.4-10.45-10.97
	s-11.23,10.19-10.18,12.27"/>
<path class="st0" d="M158.28,90.47c0,0,6.79-19.6,24.81-22.98C183.1,67.48,180.76,89.16,158.28,90.47z"/>
<path class="st0" d="M163.25,47.64c0,0-15.93,5.75-14.63,24.83C148.62,72.46,166.38,68.53,163.25,47.64z"/>
<path class="st1" d="M158.28,128.86c0,0,4.44,2.33,6.79,4.44"/>
<circle class="st2" cx="126.94" cy="35.88" r="6.27"/>
<circle class="st1" cx="137.13" cy="53.12" r="2.09"/>
<circle class="st1" cx="171.21" cy="103.66" r="2.22"/>
<circle class="st1" cx="77.84" cy="146.36" r="3.14"/>
</svg>
