<?xml version="1.0" encoding="utf-8"?>
<!-- Generator: Adobe Illustrator 24.0.2, SVG Export Plug-In . SVG Version: 6.00 Build 0)  -->
<svg version="1.1" id="Layer_1" xmlns="http://www.w3.org/2000/svg" xmlns:xlink="http://www.w3.org/1999/xlink" x="0px" y="0px"
	 viewBox="0 0 180 180" style="enable-background:new 0 0 180 180;" xml:space="preserve">
<style type="text/css">
	.st0{fill:none;stroke:#7FAFDE;stroke-width:8;stroke-linecap:round;stroke-linejoin:round;}
	.st1{fill:#87AAD5;stroke:#7FAFDE;stroke-width:8;stroke-linecap:round;stroke-linejoin:round;}
	.st2{fill:#7FAFDE;stroke:#7FAFDE;stroke-width:8;stroke-linecap:round;stroke-linejoin:round;}
</style>
<path class="st0" d="M74.14,119.96H40.4c0,0-22.27-2.25-25.19-22.72s14.17-33.51,25.64-30.81c0,0,5.96-27.55,27.1-30.92
	S102.59,49,104.61,59.8c0,0,21.81,0.68,21.59,22.94"/>
<path class="st0" d="M82.92,82.82c0.86-3.73,4.58-6.05,8.3-5.19c2.58,0.59,4.6,2.61,5.19,5.19"/>
<path class="st0" d="M64.92,93.64c2.08,3.73,6.07,5.99,10.34,5.85c6.19-0.25,9.28-5.55,9.45-5.85"/>
<path class="st0" d="M53.6,82.97c0.86-3.73,4.58-6.05,8.3-5.19c2.58,0.59,4.6,2.61,5.19,5.19"/>
<path class="st0" d="M81.33,113.66c0,0,17.77,13.04,38.46,13.26c20.69,0.22,20.02,10.12,20.02,10.12s1.13,8.55-6.07,9.67
	c-7.2,1.13-11.92-1.58-10.34-7.64"/>
<path class="st0" d="M87.52,128.17c0,0,14.62,6.3,16.42,7.64c1.8,1.34,4.27,4.73,1.34,9.23c-2.93,4.5-8.32,1.8-9.44,0"/>
<path class="st0" d="M96.51,111.75c0,0,9.44,6.07,27.44,4.5c17.99-1.58,17.09-12.59,17.09-12.59s0.68-8.09-9-9.44
	c-9.67-1.35-9.67,8.77-8.77,10.57"/>
<path class="st0" d="M144.19,86.11c0,0,5.85-16.88,21.37-19.79C165.55,66.32,163.55,84.98,144.19,86.11z"/>
<path class="st0" d="M148.46,49.23c0,0-13.72,4.95-12.59,21.38C135.87,70.61,151.16,67.22,148.46,49.23z"/>
<path class="st1" d="M144.19,119.17c0,0,3.83,2.01,5.85,3.82"/>
<circle class="st2" cx="117.2" cy="39.11" r="5.4"/>
<circle class="st1" cx="125.97" cy="53.95" r="1.8"/>
<circle class="st1" cx="155.32" cy="97.47" r="1.91"/>
<circle class="st1" cx="74.92" cy="134.23" r="2.7"/>
</svg>
