<?xml version="1.0" encoding="utf-8"?>
<!-- Generator: Adobe Illustrator 24.0.2, SVG Export Plug-In . SVG Version: 6.00 Build 0)  -->
<svg version="1.1" id="Layer_1" xmlns="http://www.w3.org/2000/svg" xmlns:xlink="http://www.w3.org/1999/xlink" x="0px" y="0px"
	 viewBox="0 0 180 180" style="enable-background:new 0 0 180 180;" xml:space="preserve">
<style type="text/css">
	.st0{fill:none;stroke:#7FAFDE;stroke-width:7;stroke-linecap:round;stroke-linejoin:round;}
	.st1{fill:#87AAD5;stroke:#7FAFDE;stroke-width:7;stroke-linecap:round;stroke-linejoin:round;}
	.st2{fill:#7FAFDE;stroke:#7FAFDE;stroke-width:7;stroke-linecap:round;stroke-linejoin:round;}
</style>
<g>
	<path class="st0" d="M75.86,116.33H46.19c0,0-19.58-1.98-22.15-19.98S36.5,66.89,46.59,69.26c0,0,5.24-24.22,23.83-27.19
		c18.59-2.96,30.46,11.86,32.23,21.36c0,0,19.18,0.6,18.98,20.17"/>
	<path class="st0" d="M83.58,83.67c0.76-3.28,4.03-5.32,7.3-4.56c2.27,0.52,4.04,2.29,4.56,4.56"/>
	<path class="st0" d="M67.75,93.19c1.83,3.28,5.34,5.27,9.09,5.14c5.44-0.22,8.16-4.88,8.31-5.14"/>
	<path class="st0" d="M57.8,83.8c0.76-3.28,4.03-5.32,7.3-4.56c2.27,0.52,4.04,2.29,4.56,4.56"/>
	<path class="st0" d="M82.18,110.79c0,0,15.62,11.47,33.82,11.66s17.6,8.9,17.6,8.9s0.99,7.52-5.34,8.5
		c-6.33,0.99-10.48-1.39-9.09-6.72"/>
	<path class="st0" d="M87.63,123.55c0,0,12.86,5.54,14.44,6.72s3.75,4.16,1.18,8.12c-2.58,3.96-7.32,1.58-8.3,0"/>
	<path class="st0" d="M95.53,109.11c0,0,8.3,5.34,24.13,3.96c15.82-1.39,15.03-11.07,15.03-11.07s0.6-7.11-7.91-8.3
		c-8.5-1.19-8.5,7.71-7.71,9.29"/>
	<path class="st0" d="M137.46,86.56c0,0,5.14-14.84,18.79-17.4C156.24,69.16,154.48,85.57,137.46,86.56z"/>
	<path class="st0" d="M141.21,54.14c0,0-12.06,4.35-11.07,18.8C130.14,72.94,143.58,69.95,141.21,54.14z"/>
	<path class="st1" d="M137.46,115.63c0,0,3.37,1.77,5.14,3.36"/>
	<circle class="st2" cx="113.72" cy="45.24" r="4.75"/>
	<circle class="st1" cx="121.43" cy="58.29" r="1.58"/>
	<circle class="st1" cx="147.24" cy="96.55" r="1.68"/>
	<circle class="st1" cx="76.55" cy="128.88" r="2.37"/>
</g>
</svg>
