<?xml version="1.0" encoding="utf-8"?>
<!-- Generator: Adobe Illustrator 24.0.2, SVG Export Plug-In . SVG Version: 6.00 Build 0)  -->
<svg version="1.1" id="Layer_1" xmlns="http://www.w3.org/2000/svg" xmlns:xlink="http://www.w3.org/1999/xlink" x="0px" y="0px"
	 viewBox="0 0 512 512" style="enable-background:new 0 0 512 512;" xml:space="preserve">
<style type="text/css">
	.st0{fill:none;stroke:#7FAFDE;stroke-width:20;stroke-linecap:round;stroke-linejoin:round;}
	.st1{fill:#87AAD5;stroke:#7FAFDE;stroke-width:20;stroke-linecap:round;stroke-linejoin:round;}
	.st2{fill:#7FAFDE;stroke:#7FAFDE;stroke-width:20;stroke-linecap:round;stroke-linejoin:round;}
</style>
<path class="st0" d="M213.5,333.56h-89.12c0,0-58.84-5.94-66.56-60.02s37.43-88.54,67.74-81.41c0,0,15.74-72.78,71.6-81.71
	s91.52,35.65,96.87,64.17c0,0,57.63,1.78,57.04,60.62"/>
<path class="st0" d="M236.73,235.44c2.27-9.84,12.09-15.98,21.94-13.72c6.82,1.57,12.15,6.9,13.72,13.72"/>
<path class="st0" d="M189.15,264.03c5.49,9.87,16.05,15.84,27.33,15.45c16.35-0.65,24.52-14.65,24.96-15.45"/>
<path class="st0" d="M159.24,235.83c2.27-9.84,12.09-15.98,21.94-13.72c6.82,1.57,12.15,6.9,13.72,13.72"/>
<path class="st0" d="M232.52,316.92c0,0,46.94,34.46,101.61,35.04s52.88,26.74,52.88,26.74s2.97,22.59-16.05,25.56
	s-31.49-4.16-27.33-20.18"/>
<path class="st0" d="M248.86,355.25c0,0,38.63,16.63,43.39,20.18c4.76,3.53,11.29,12.48,3.54,24.39c-7.75,11.9-21.98,4.76-24.95,0"
	/>
<path class="st0" d="M272.63,311.87c0,0,24.95,16.05,72.5,11.88c47.55-4.16,45.16-33.28,45.16-33.28s1.78-21.38-23.77-24.95
	c-25.56-3.57-25.55,23.18-23.17,27.92"/>
<path class="st0" d="M398.6,244.12c0,0,15.45-44.59,56.45-52.29C455.05,191.84,449.75,241.15,398.6,244.12z"/>
<path class="st0" d="M409.9,146.67c0,0-36.25,13.07-33.28,56.49C376.62,203.16,417.03,194.21,409.9,146.67z"/>
<path class="st1" d="M398.6,331.48c0,0,10.11,5.31,15.45,10.09"/>
<circle class="st2" cx="327.29" cy="119.93" r="14.26"/>
<circle class="st1" cx="350.47" cy="159.15" r="4.76"/>
<circle class="st1" cx="428.01" cy="274.13" r="5.05"/>
<circle class="st1" cx="215.59" cy="371.28" r="7.14"/>
</svg>
