<?xml version="1.0" encoding="utf-8"?>
<!-- Generator: Adobe Illustrator 24.0.2, SVG Export Plug-In . SVG Version: 6.00 Build 0)  -->
<svg version="1.1" id="Layer_1" xmlns="http://www.w3.org/2000/svg" xmlns:xlink="http://www.w3.org/1999/xlink" x="0px" y="0px"
	 viewBox="0 0 192 192" style="enable-background:new 0 0 192 192;" xml:space="preserve">
<style type="text/css">
	.st0{fill:none;stroke:#7FAFDE;stroke-width:8;stroke-linecap:round;stroke-linejoin:round;}
	.st1{fill:#87AAD5;stroke:#7FAFDE;stroke-width:8;stroke-linecap:round;stroke-linejoin:round;}
	.st2{fill:#7FAFDE;stroke:#7FAFDE;stroke-width:8;stroke-linecap:round;stroke-linejoin:round;}
</style>
<path class="st0" d="M81.68,127.51H48.25c0,0-22.07-2.23-24.96-22.51S37.33,71.8,48.7,74.47c0,0,5.91-27.3,26.85-30.64
	c20.95-3.35,34.32,13.37,36.34,24.07c0,0,21.62,0.67,21.39,22.73"/>
<path class="st0" d="M90.39,90.71c0.85-3.69,4.53-6,8.23-5.15c2.56,0.59,4.56,2.59,5.15,5.15"/>
<path class="st0" d="M72.55,101.44c2.06,3.7,6.02,5.94,10.25,5.79c6.14-0.24,9.2-5.5,9.36-5.79"/>
<path class="st0" d="M61.32,90.85c0.85-3.69,4.53-6,8.23-5.15c2.56,0.59,4.56,2.59,5.15,5.15"/>
<path class="st0" d="M88.81,121.28c0,0,17.6,12.93,38.11,13.14s19.84,10.03,19.84,10.03s1.12,8.47-6.02,9.58
	c-7.13,1.11-11.81-1.56-10.25-7.57"/>
<path class="st0" d="M94.94,135.65c0,0,14.49,6.24,16.27,7.57c1.78,1.33,4.23,4.68,1.33,9.15c-2.9,4.46-8.24,1.78-9.36,0"/>
<path class="st0" d="M103.85,119.37c0,0,9.36,6.02,27.2,4.45c17.83-1.56,16.94-12.48,16.94-12.48s0.67-8.02-8.92-9.36
	c-9.58-1.34-9.58,8.7-8.69,10.47"/>
<path class="st0" d="M151.1,93.97c0,0,5.79-16.73,21.17-19.61C172.28,74.35,170.29,92.85,151.1,93.97z"/>
<path class="st0" d="M155.34,57.42c0,0-13.59,4.91-12.48,21.19C142.86,78.6,158.02,75.25,155.34,57.42z"/>
<path class="st1" d="M151.1,126.73c0,0,3.79,1.99,5.79,3.79"/>
<circle class="st2" cx="124.36" cy="47.38" r="5.35"/>
<circle class="st1" cx="133.06" cy="62.1" r="1.78"/>
<circle class="st1" cx="162.14" cy="105.22" r="1.89"/>
<circle class="st1" cx="82.46" cy="141.66" r="2.68"/>
</svg>
