<?xml version="1.0" encoding="utf-8"?>
<!-- Generator: Adobe Illustrator 24.0.2, SVG Export Plug-In . SVG Version: 6.00 Build 0)  -->
<svg version="1.1" id="Layer_1" xmlns="http://www.w3.org/2000/svg" xmlns:xlink="http://www.w3.org/1999/xlink" x="0px" y="0px"
	 viewBox="0 0 512 512" style="enable-background:new 0 0 512 512;" xml:space="preserve">
<style type="text/css">
	.st0{fill:none;stroke:#7FAFDE;stroke-width:20;stroke-linecap:round;stroke-linejoin:round;}
	.st1{fill:#87AAD5;stroke:#7FAFDE;stroke-width:20;stroke-linecap:round;stroke-linejoin:round;}
	.st2{fill:#7FAFDE;stroke:#7FAFDE;stroke-width:20;stroke-linecap:round;stroke-linejoin:round;}
</style>
<path class="st0" d="M206.94,352.95H104.07c0,0-67.91-6.86-76.82-69.28s43.2-102.19,78.19-93.96c0,0,18.17-84.01,82.64-94.31
	s105.63,41.15,111.81,74.07c0,0,66.52,2.06,65.84,69.97"/>
<path class="st0" d="M233.75,239.7c2.62-11.36,13.95-18.45,25.32-15.84c7.87,1.81,14.02,7.96,15.84,15.84"/>
<path class="st0" d="M178.83,272.7c6.34,11.39,18.52,18.28,31.55,17.83c18.87-0.75,28.3-16.91,28.81-17.83"/>
<path class="st0" d="M144.31,240.15c2.62-11.36,13.95-18.45,25.32-15.84c7.87,1.81,14.02,7.96,15.84,15.84"/>
<path class="st0" d="M228.89,333.75c0,0,54.18,39.78,117.28,40.44c63.1,0.66,61.04,30.86,61.04,30.86s3.43,26.07-18.52,29.5
	c-21.95,3.43-36.35-4.8-31.55-23.29"/>
<path class="st0" d="M247.75,377.99c0,0,44.59,19.2,50.08,23.29c5.49,4.08,13.03,14.41,4.09,28.15s-25.37,5.49-28.8,0"/>
<path class="st0" d="M275.19,327.91c0,0,28.8,18.52,83.68,13.71c54.88-4.8,52.12-38.41,52.12-38.41s2.06-24.68-27.44-28.8
	s-29.49,26.75-26.74,32.23"/>
<path class="st0" d="M420.59,249.72c0,0,17.83-51.47,65.16-60.36C485.75,189.37,479.63,246.29,420.59,249.72z"/>
<path class="st0" d="M433.63,137.24c0,0-41.84,15.09-38.41,65.2C395.22,202.44,441.86,192.11,433.63,137.24z"/>
<path class="st1" d="M420.59,350.55c0,0,11.67,6.13,17.83,11.65"/>
<circle class="st2" cx="338.28" cy="106.37" r="16.46"/>
<circle class="st1" cx="365.04" cy="151.64" r="5.49"/>
<circle class="st1" cx="454.54" cy="284.36" r="5.83"/>
<circle class="st1" cx="209.35" cy="396.49" r="8.24"/>
</svg>
