<svg id="Layer_1" data-name="Layer 1" xmlns="http://www.w3.org/2000/svg" viewBox="0 0 495.41 145.63">
  <defs>
    <style>
      .cls-1 {
        fill: #7eafe3;
        stroke: #7eafe3;
        stroke-miterlimit: 10;
        stroke-width: 3px;
      }
    </style>
  </defs>
  <title>logo-title-200-2</title>
  <g>
    <path class="cls-1" d="M13.82,135.75q0-1.65-.66-1.65a8.16,8.16,0,0,1-.49-2.55v-1.72a1.27,1.27,0,0,0-.25-.91c-.16-.16-.52-.19-1.07-.08.22-1.32.52-2.74.91-4.28a6.76,6.76,0,0,0,.41-2.47c.22-1.42.19-2.3-.08-2.63a6.23,6.23,0,0,0-2.39-1.15c1.1-2.08,1.56-3.54,1.4-4.36s-.36-1.67-.58-2.55c-.55-1.54-.68-2.61-.41-3.21s.69-1.45,1.24-2.55a2.86,2.86,0,0,0,.41-2.3,2.49,2.49,0,0,0-2.06-2A30.94,30.94,0,0,1,11,97.58c.44-1.64.77-2.91,1-3.78-.33-.88-.63-1.68-.91-2.39a3.76,3.76,0,0,1,.09-2.55,2,2,0,0,1-.09-1.48c.17-.55.33-1,.5-1.48s.3-.85.41-1.23.05-.64-.16-.74a3.87,3.87,0,0,1,.9-2.14c.38-.33.36-1.1-.08-2.31a11.63,11.63,0,0,1-1.07-3.86,23,23,0,0,1,.08-3.38,1.92,1.92,0,0,0,.58-.9,3.26,3.26,0,0,0,0-1,9.9,9.9,0,0,1-.09-1.48,8,8,0,0,1,.5-2.38c-.33-.66-.39-1.1-.17-1.32a4.81,4.81,0,0,0,.66-2,14.89,14.89,0,0,1-.82-4c-.11-1.43-.28-2.14-.49-2.14.43-1.1.38-3.29-.17-6.58A14.24,14.24,0,0,1,12.59,48a9.62,9.62,0,0,1,3.7-3.7c-.22,0-.22-.17,0-.5s.49-.71.82-1.15a12.47,12.47,0,0,0,.91-1.4A2.71,2.71,0,0,0,18.43,40a6.68,6.68,0,0,0,.9-.17q.74-.16,1.65-.33a6.23,6.23,0,0,1,1.64-.08,1.28,1.28,0,0,1,1.07.74,11.59,11.59,0,0,1,4.61-1.07,12.34,12.34,0,0,1,3.29.58c.22-.66,1-1,2.38-1.15a8.31,8.31,0,0,1,3.05.16c1.09.33,1.89.55,2.38.66s1.68.33,3.54.66a11.34,11.34,0,0,1,2.47-.58,10.92,10.92,0,0,1,1.81,0l1.81.17c.66,0,1.59.08,2.79.08a12,12,0,0,1,5.6-1.32c1.53.11,3.23.17,5.1.17a3.48,3.48,0,0,0,1,1.48,3.14,3.14,0,0,1,.75.66,2,2,0,0,1,.32.9,15.7,15.7,0,0,1,.09,2.06,4.42,4.42,0,0,1,2.14,1.23A4.41,4.41,0,0,0,68,46.09a10.53,10.53,0,0,1-.58,4.19,10.21,10.21,0,0,1-2.55,4,2,2,0,0,1-1.07,1.15c-.49.22-1,.41-1.48.58s-.93.3-1.32.41-.57.27-.57.49A17,17,0,0,0,56,56.86c-1.26.17-1.73.14-1.4-.08a8.61,8.61,0,0,0-3.87-2.22c-1-.17-2.33-.36-3.86-.58a3,3,0,0,1-1.15,1.57q-.83.57-4.12-1.07l-2.79,1.15a3.6,3.6,0,0,0-3.29-.82,12.26,12.26,0,0,0-3.29,1.8c-1-.54-1.68-.38-2.06.5a14.54,14.54,0,0,0-.91,3.62l.17,6.58-.17,3.78,1.32,4.77-2.47,7.57,2.14,4.44-2.14,5.76L29,97.09l-.33,7.56,1.48,4.78-2.47,5.92,1.15,5.43-1,3.45,2.64,6.91c-.66.22-1.05.55-1.16,1a3.35,3.35,0,0,0,0,1.48,16.63,16.63,0,0,0,.42,1.65,5.29,5.29,0,0,1,.24,1.48c-.11,0-.08.19.08.57a2.94,2.94,0,0,0,.83,1.07,3.45,3.45,0,0,0,3.7.5c1.1.87,1.81,1.42,2.14,1.64s1.31.11,3-.33a2.67,2.67,0,0,0,3.21.82,18.81,18.81,0,0,1,3.7-.82q3.28-.33,4.77-.33a7.9,7.9,0,0,1,2.8.5,12.43,12.43,0,0,1,4.36-1.16H61l1.81-1.31a1.51,1.51,0,0,0,1,1.15,10,10,0,0,0,1.57.49,2.85,2.85,0,0,1,1.15.5c.27.22.3.65.08,1.31a10.78,10.78,0,0,1,1.73,3.29c.16.77,1,1.32,2.38,1.65a9.8,9.8,0,0,0-2.3,3.12,2.81,2.81,0,0,0,0,2.31c-1.54.87-2.8,1.53-3.78,2a22.38,22.38,0,0,0-2.31,1.15,3.39,3.39,0,0,0-1.23.5c-.6.33-1.51-.11-2.72-1.32a11.62,11.62,0,0,1-4.11,1.89,9.82,9.82,0,0,0-2.8.74,1.94,1.94,0,0,1-2-.41,3,3,0,0,0-2.63-.41,2.06,2.06,0,0,0-.91.33,5,5,0,0,1-1.15.49,4.4,4.4,0,0,1-1.23.17c-.44,0-.72-.28-.82-.82a8.71,8.71,0,0,0-2.8-.17c-.66.11-1.21.19-1.65.25a2.83,2.83,0,0,1-1.15-.08A2.89,2.89,0,0,1,36,155a3.31,3.31,0,0,1-1.65,1.07,2.3,2.3,0,0,1-1.31-.25,12.51,12.51,0,0,1-1.48-.9,4.63,4.63,0,0,0-2.14-.74,4.76,4.76,0,0,1-3,1.39c-.83,0-1.73-1-2.72-2.71-.11.55-.71.47-1.81-.25a7.58,7.58,0,0,0-3.45-1.23,2.42,2.42,0,0,0-1.16-1.73,6.67,6.67,0,0,1-1.81-3.7A3.78,3.78,0,0,1,14,143.56c-.22-1-.49-2.33-.82-3.86l1.15-1A8.35,8.35,0,0,1,13.82,135.75Zm59.72,20.4.33-1.81a8.33,8.33,0,0,1,.08-3.46,41.36,41.36,0,0,1,1.89-5.75,6.24,6.24,0,0,0-.16-.91q-.17-.74-.33-1.56a4.57,4.57,0,0,1,0-1.73,2,2,0,0,1,1-1.4l-.66-10.2c.55.33.71,0,.49-.9s-.6-2.33-1.15-4.2c.22-.22.3-.41.25-.57s-.14-.39-.25-.66a2.4,2.4,0,0,1-.08-1.15,7,7,0,0,1,.57-1.89c-.1-1.1-.16-2.23-.16-3.38V113.7a11.36,11.36,0,0,0-1.07-1.89c-.16-.16,0-.52.41-1.07a32.81,32.81,0,0,0,1.07-4.52,3.83,3.83,0,0,0-1.56-3.38,2.84,2.84,0,0,0,1.4-1.64c.38-.88.63-1.32.74-1.32a5.82,5.82,0,0,1-1.32-4,4.76,4.76,0,0,0-.66-3.21c1,.11,1.46-.24,1.4-1.06a13.92,13.92,0,0,0-.9-3.54A2.08,2.08,0,0,0,74,86.56c-.49-.33-.74-1-.74-2.14a8.79,8.79,0,0,1,.5-2.39,37.8,37.8,0,0,1,1.8-4.36l-.41-.57L74.28,76c-.27-.39-.52-.74-.74-1.07s-.27-.39-.16-.17a25.65,25.65,0,0,0,1.23-4.93,6.68,6.68,0,0,1,1.07-3,1.9,1.9,0,0,1-1.56-1.56A26,26,0,0,1,73.71,62c.43.11.63.06.57-.16s-.14-.6-.25-1.15a10.29,10.29,0,0,1-.16-2,5.51,5.51,0,0,1,.66-2.46c-.44-.11-.41-.66.08-1.65A16,16,0,0,0,75.68,52a8.31,8.31,0,0,1-.41-1.73,3.92,3.92,0,0,0-.33-1.23,1,1,0,0,0-.66-.58,4.19,4.19,0,0,0-1.56.25,9.6,9.6,0,0,1-.08-2.14c0-.55.11-1.07.16-1.56a8,8,0,0,1,.33-1.57,14.09,14.09,0,0,0,.41-2.14c-.11.11-.11-.05,0-.49s.25-1,.41-1.56.3-1.21.41-1.81a8.61,8.61,0,0,0,.17-1.24q3.78-2.3,3.12-4.44a3,3,0,0,1,2.39.41,5.11,5.11,0,0,0,2.71.74q3.8-.33,5,.83a2.66,2.66,0,0,1,1.07,2.3,1.63,1.63,0,0,1,1.23.66,6.67,6.67,0,0,1,1.07,1.73,23.45,23.45,0,0,1,.91,2.3c.27.82.52,1.51.74,2v4.12l-.16,4.6-1.16,7.57-1.15,4.61.17,6.42.33,3.12,1.64,6.91-1,4.94,6.91-1.65,4.45,1.15a6.42,6.42,0,0,0,.82-1.56,2,2,0,0,0-.08-1.23c-.17-.44-.36-1-.58-1.57a11.41,11.41,0,0,1-.49-2.71c.54-.22.87-.8,1-1.73s-.33-1.29-1.31-1.07a4.8,4.8,0,0,1,.49-3.29A14.64,14.64,0,0,0,104,66.81c-.77.11-1.1-.13-1-.74a18.82,18.82,0,0,0-.33-4.36c-.33-.32-.41-.6-.25-.82a12.65,12.65,0,0,0,.74-3.12v-.91a14.42,14.42,0,0,1,.09-1.56,6,6,0,0,1,.24-1.32q.17-.49.33-.33a13.45,13.45,0,0,1-1.31-3.12c-.22-.88-.39-1.65-.5-2.31s-.19-1.2-.24-1.64a2.41,2.41,0,0,0-.74-1.32c0,.22,0,.17.08-.16s.13-.77.24-1.32.25-1.15.42-1.81.3-1.15.41-1.48l-.66-1L101,41.31a7.54,7.54,0,0,1,.41-3.37c.38-1,1.45-1.84,3.2-2.38a4.52,4.52,0,0,1,1.65-1.73,8.36,8.36,0,0,0,2.3-2.55c1.21.33,2.2.57,3,.74a6.67,6.67,0,0,1,1.9.66,3.84,3.84,0,0,1,1.23,1.07,8.89,8.89,0,0,1,1,1.81c.44.76.79,1.37,1.07,1.81a7.66,7.66,0,0,1,.66,1.31l.57,1.57c.22.6.55,1.45,1,2.54a3.5,3.5,0,0,1-.25,2,9.27,9.27,0,0,0-.25,3.62c-.43,1-.3,1.7.42,2.14a5.78,5.78,0,0,1,1.89,3.12c-.22-.11-.44,0-.66.41s-.44.83-.66,1.32a7.78,7.78,0,0,0-.49,1.48,5.11,5.11,0,0,1-.33,1.07,11,11,0,0,1,2,4.61,5,5,0,0,0,.83,2.63,1.58,1.58,0,0,0-.66.82,6.58,6.58,0,0,0-.25,1.15,4.7,4.7,0,0,1-.49,1.49,6.36,6.36,0,0,1-1.57,1.8,2.53,2.53,0,0,1,1.24,1,4.71,4.71,0,0,1,.57,1.32,4.63,4.63,0,0,1,.17,1.07c0,.27,0,.3.16.08.11,1.53.17,2.63.17,3.29a3.75,3.75,0,0,0,.82,2.14,27.83,27.83,0,0,1-.66,2.71,15.61,15.61,0,0,1-.66,1.81l-.65,1.48a7.21,7.21,0,0,0-.5,1.73c.22-.11.44.06.66.49a4.43,4.43,0,0,1,.41,1.65,11.8,11.8,0,0,1,0,2.06,3.14,3.14,0,0,1-.57,1.72,2.84,2.84,0,0,1,.82,2.06c0,.82-.33,1.07-1,.74A15.2,15.2,0,0,1,121,99.88a5.35,5.35,0,0,1-.57,3.79l.49,4.11-.33,9.21.83,5.27a5,5,0,0,0-1,1.56,1.69,1.69,0,0,0,.08,1.15c.17.39.39.85.66,1.4a7.15,7.15,0,0,1,.58,2.3.68.68,0,0,0-.66.58,8.4,8.4,0,0,0-.25,1.32c0,.49-.11,1-.16,1.39a2.73,2.73,0,0,1-.42,1.16c-.65.11-.82.52-.49,1.23s.66,1.51,1,2.39a6.14,6.14,0,0,1-.25,1.81,9.69,9.69,0,0,0-.33,1.56,5.21,5.21,0,0,0,.08,1.56,5.49,5.49,0,0,0,1,2c-.66.22-1,.52-1.15.9a4.77,4.77,0,0,0-.16,1.32,6.86,6.86,0,0,1-.17,1.48,1.92,1.92,0,0,1-1.15,1.23,12.76,12.76,0,0,1,.25,3.29c-.06,1.21-.2,1.81-.42,1.81a9.5,9.5,0,0,1,1.32,2.72c.44,1.26.55,2,.33,2.38a34.15,34.15,0,0,1-2.71,3,3,3,0,0,0-.74,2.64,2.09,2.09,0,0,0-1.9.9c-.38.6-1.56,1.34-3.53,2.22a3.41,3.41,0,0,1-1.9-.41,4.93,4.93,0,0,1-1.07-1.07c-.32-.44-.65-.9-1-1.4a4.84,4.84,0,0,0-1.65-1.4c.22-.22.06-.41-.49-.57a1,1,0,0,1-.82-1.07c-.22-2.41-.36-4.17-.42-5.27a4.44,4.44,0,0,0-1.39-3,9.21,9.21,0,0,1,1.89-2c.6-.44.46-.93-.41-1.48a13.13,13.13,0,0,1-.58-4.11,10.46,10.46,0,0,1,1.4-4.28,1.33,1.33,0,0,0-.91-1.24c-.6-.27-.79-.85-.57-1.72a13.09,13.09,0,0,1,1.4-3.71,1.86,1.86,0,0,0,.41-1.56,4.24,4.24,0,0,1-.66-2.06,4.33,4.33,0,0,1,.25-1.56c.16-.44.33-.85.49-1.23a2.67,2.67,0,0,0,.25-1.07,3.35,3.35,0,0,1-.58-2.72A40.19,40.19,0,0,1,106,120a7.33,7.33,0,0,1-.82-4.45,6.56,6.56,0,0,1-1-2.55,2.17,2.17,0,0,1,.33-1.23,13.46,13.46,0,0,1,.08-4.52c.28-1.16.63-2.39,1.07-3.71-1.09-.11-1.48-.68-1.15-1.72a16.68,16.68,0,0,0,.66-2.88l-8.06-.33L91.64,101l-1.15,4.27,2.3,5.27-2.14,4.11,2.14,7.57-1,5.26-1,5.43.82,5.6.82,4.11L93,149.9l-.32,5.26L90.16,158a4.14,4.14,0,0,1,.66,2,13.14,13.14,0,0,1-.09,1.57L90.57,163a4,4,0,0,0,.25,1.73c-.55.87-1.79,1.37-3.71,1.48a22.91,22.91,0,0,1-4.85-.17,23.06,23.06,0,0,0-2.71.17c-.94.1-1.68-.5-2.23-1.81a3.89,3.89,0,0,1-.82-.25,3.54,3.54,0,0,1-1.23-.82,4.78,4.78,0,0,1-1-1.65,5.45,5.45,0,0,1-.25-2.55l-.82,1.15Z" transform="translate(-8.05 -29.55)"/>
    <path class="cls-1" d="M141,128.67a2,2,0,0,1-2.31-1.48,2.42,2.42,0,0,0-1.07-2.46,4.79,4.79,0,0,1-1.72-3.13,1,1,0,0,0,1.07,0,3.54,3.54,0,0,0,1-.82,2.88,2.88,0,0,0,.58-1.07l.16-.58c.33-1.09.61-2,.83-2.63a2.48,2.48,0,0,1,.82-1.32,3.06,3.06,0,0,1,1.4-.41c.6,0,1.51-.08,2.71-.08l1.65.33a3.12,3.12,0,0,1,1.23-.16,11.48,11.48,0,0,1,1.89.16,15.7,15.7,0,0,1,1.81.41,4.7,4.7,0,0,0,1.32.25l.82-.08c.55-.06,1.21-.11,2-.17a12.93,12.93,0,0,1,2.46.08,5.28,5.28,0,0,1,2.31.83c0-.55.41-.72,1.23-.5s2.17.55,4,1a20.24,20.24,0,0,1,3.54-1.15c1-.22,1.84.33,2.38,1.64a7.8,7.8,0,0,1,3.38-1.64q1.72-.33,2.88-.66a6.92,6.92,0,0,1,1.48-.25,6.67,6.67,0,0,1,1.81.09,2.19,2.19,0,0,1,1.31.74,1.82,1.82,0,0,1,.33,1.56c2.09.11,3.32,0,3.7-.33s.85-.28,1.4.16a24.56,24.56,0,0,1,4.2-1.64,3.93,3.93,0,0,1,2.88.49,17.14,17.14,0,0,0,2.79.58c.66,0,2,.08,4,.08a1.62,1.62,0,0,1,1.07-.9,3.7,3.7,0,0,1,1.15,0,6.5,6.5,0,0,0,1.4,0,4.94,4.94,0,0,0,2.14-1.07c.11,1.2.47,1.7,1.07,1.48a18.11,18.11,0,0,1,3.21-.66,2.83,2.83,0,0,0,1.81.66,5.34,5.34,0,0,1,2.46.82,7,7,0,0,0,2.06-.33,19.08,19.08,0,0,1,1.89-.49,4.4,4.4,0,0,1,1.4-.09c.38.06.52.42.41,1.07a35.13,35.13,0,0,1,3.21-1.56c.71-.27,1.45-.52,2.22-.74l2.55.49a7.49,7.49,0,0,1,1.32.33,3.52,3.52,0,0,1,.74.41,2.89,2.89,0,0,0,1.15.42c1.43-.22,2.6-.39,3.54-.5a10.65,10.65,0,0,0,3.53-1.31,4,4,0,0,0,1.65.82,7.61,7.61,0,0,1,1.4.41,3.07,3.07,0,0,1,1,.66,1.85,1.85,0,0,1,.24,1.56,14.48,14.48,0,0,1,3,1.15,3.09,3.09,0,0,1,1.81,2.63q-.83,4.29-2.46,5.43a10.91,10.91,0,0,1-3.62,1.65,9.31,9.31,0,0,1-3,1.15,6.94,6.94,0,0,1-2.14,0,10.94,10.94,0,0,1-1.4-.33,1.08,1.08,0,0,0-1,.17,6,6,0,0,1-1,.74,5.11,5.11,0,0,1-1.23.57,1.79,1.79,0,0,1-.91.08q-.33-.08,0-.9l-2.63.74-1.4.41a3.66,3.66,0,0,1-1.4.08,19.75,19.75,0,0,1-2.3-.41,2.88,2.88,0,0,1-1.15.58,6.12,6.12,0,0,1-.91.08,3.36,3.36,0,0,0-.74.08c-.22.06-.33.3-.33.74a12.75,12.75,0,0,1-4.69-.57,5.2,5.2,0,0,0-4.36.41,2.81,2.81,0,0,0-2.13-1.73,5.25,5.25,0,0,1-2-.74,9.29,9.29,0,0,0-2.63.58c-.66.27-1.21.49-1.65.65a5.26,5.26,0,0,1-1.23.33,3.51,3.51,0,0,1-1.56-.24l-.33,7.89-1.48,4.61.33,6.75,2,5.26-1.31,4.61c.43,2.08.21,3.42-.66,4a6,6,0,0,1-2.47,1.07c.22,1.86-.25,3-1.4,3.53s-2.33,1-3.54,1.57a5,5,0,0,0-1.48-1.32,9.75,9.75,0,0,0-1.4-.57,11.76,11.76,0,0,1-1.64-.74,12.75,12.75,0,0,1-2.06-1.49,2.57,2.57,0,0,1-.9-2.46,6.16,6.16,0,0,0-1.07-3.62l2-4.77-.82-7.41,1.15-5.92-.33-4.61-1.81-6.25a3.21,3.21,0,0,0-2.63.08c-.55.39-1.21.2-2-.57-1.54.11-2.66.22-3.38.33a7.29,7.29,0,0,1-2.88-.33,2.8,2.8,0,0,1-.82.41,10.13,10.13,0,0,1-1.48.41,3.79,3.79,0,0,1-1.73-.08,3,3,0,0,1-1.56-1.07,3.63,3.63,0,0,0-2.22.74,3.53,3.53,0,0,1-2.71.57,5.7,5.7,0,0,1-3.46-.08,25.23,25.23,0,0,1-4.77-1.89q-.33,1-1.65.66a2.78,2.78,0,0,1-1.81-1.15,2,2,0,0,1-1.48.57,6.62,6.62,0,0,1-1.39-.33,14.39,14.39,0,0,0-1.57-.41,4.06,4.06,0,0,0-2.14.33l.5-1.15C143.3,128.51,142.2,128.57,141,128.67ZM149.88,51c-.77-.55-1-.88-.82-1a22.21,22.21,0,0,1-2.47-1.64,4.12,4.12,0,0,1-1.15-1.32,5.49,5.49,0,0,1-.49-1.64c-.11-.66-.22-1.59-.33-2.8.87-.55,1.48-.93,1.81-1.15s.27-.93-.17-2.14c.88-1.54,2-2.3,3.21-2.3a7.64,7.64,0,0,0,3.7-1c.77,0,1.73,0,2.88-.16a7.57,7.57,0,0,0,2.39-.5,16.08,16.08,0,0,0,2.79.66,2.82,2.82,0,0,0,1.48-.82l6.75.33,7.4,1.31,3.79-2,7.56,1a4.79,4.79,0,0,0,1.16.41,5.61,5.61,0,0,0,.82.08,2,2,0,0,1,.74.16,5.27,5.27,0,0,1,1.07.66,4.58,4.58,0,0,1,2.14-1.15A7.14,7.14,0,0,1,196,36c.6.05,1.12.11,1.56.16a1.77,1.77,0,0,0,1.32-.41,2.1,2.1,0,0,1,2.3-.25,26,26,0,0,0,3.95,1.4q-.16.16,1.32,0c1-.11,2-.27,3.12-.49.11-.33.71-.6,1.81-.82s2.85-.61,5.27-1.16c.87.88,1.61,1.24,2.22,1.07s.85-.08.74.25l6.08.49c.55,0,1.59,0,3.13-.08a11.63,11.63,0,0,0,4-.74c0,.22.19.5.58.82a7.07,7.07,0,0,0,1.15.83,2,2,0,0,0,.82.33c.16,0,.08-.22-.25-.66q2.47,2.79,2.47,5.1a34.29,34.29,0,0,0,2.14,4,8.37,8.37,0,0,1,1,4,2.53,2.53,0,0,0-1.24,2.63c.17,1.1,0,1.81-.41,2.14.22,1.87.36,3.29.41,4.28s-.19,1.2-.74.66a8.41,8.41,0,0,1,1.07,2.22,3.62,3.62,0,0,1,.08,1.72,12.5,12.5,0,0,1-.57,1.9c-.28.71-.58,1.61-.91,2.71.44-.11.69,0,.74.33a3.2,3.2,0,0,1,0,1.07,3.83,3.83,0,0,0,0,1.07.53.53,0,0,0,.58.49,18.15,18.15,0,0,0-.17,2.14,15.19,15.19,0,0,1-.08,1.65,13.73,13.73,0,0,1-.33,1.89,14.16,14.16,0,0,1-.9,2.55,3.16,3.16,0,0,0-.74,1.73,14.62,14.62,0,0,1-.58,2.55,7.46,7.46,0,0,1,.08,1.89L236.83,87c-.06.49-.11,1-.16,1.64a7.91,7.91,0,0,0,.24,2.39c-.33.66-.11,2.08.66,4.28a7.88,7.88,0,0,0-1.07,1.4c-.38.6-.74,1.15-1.07,1.64a8,8,0,0,1-.9,1.15.65.65,0,0,1-.91.08c.44.44.19,1-.74,1.57a21,21,0,0,0-3.21,2.71,24.26,24.26,0,0,1-4.44-1,5.85,5.85,0,0,1-3-2c-.66-.22-1-1-1.15-2.22a9.88,9.88,0,0,1,.16-3.21l.33-1c.22-1,.47-1.94.74-2.87a18.42,18.42,0,0,0,.25-5.19,1.67,1.67,0,0,1-.17-2.46,7.72,7.72,0,0,0,1.16-3.79q-.17-1.32-.42-2.88a13,13,0,0,0-1.07-3.37,23.16,23.16,0,0,0,1.57-3,9.42,9.42,0,0,0,.74-3.71,8.72,8.72,0,0,1-.74-3,4.25,4.25,0,0,0-.74-2.14,8.42,8.42,0,0,1-.41-3.94,4.68,4.68,0,0,0-1.57-4c.66-.22.44-.8-.65-1.73a9.2,9.2,0,0,0-5.1-1.73l-.91.08c-.49.06-1,.14-1.56.25a6.29,6.29,0,0,1-1.81.08,4.43,4.43,0,0,1-1.65-.41c-.55.11-1.15.22-1.81.33s-1.59.33-2.79.66a2.33,2.33,0,0,1-2.06.66c-.82-.11-2,.33-3.37,1.31a5.25,5.25,0,0,1-3.46-1,4.08,4.08,0,0,0-3.12-.83,3.35,3.35,0,0,1-2.64.25,4.79,4.79,0,0,0-3.29.41,2,2,0,0,1-2.38.08,7,7,0,0,0-1.73-1.07,3,3,0,0,1-2.71,1.07,12.45,12.45,0,0,0-3.71.09,2.9,2.9,0,0,1-1.48.49,7.68,7.68,0,0,1-1.15-.08,1.87,1.87,0,0,0-.82,0c-.22.05-.38.35-.49.9a33.51,33.51,0,0,0-4.2-1.23,2.22,2.22,0,0,0-2.71,1.07,7.65,7.65,0,0,0-2.88-.33l-4.36.82a15.77,15.77,0,0,0-1.24-1.15,1.92,1.92,0,0,0-.74-.41,1.75,1.75,0,0,0-.9.08,5.94,5.94,0,0,1-1.57.17l-1.31-1.49A2.87,2.87,0,0,1,149.88,51Z" transform="translate(-8.05 -29.55)"/>
    <path class="cls-1" d="M268.34,160.92a32,32,0,0,0-1.48-5.43,4.6,4.6,0,0,1-.33-2.38,5.16,5.16,0,0,1,1.64-3.71c-1.53-.65-2.35-1.56-2.46-2.71a3.07,3.07,0,0,1,.65-2.55,13.62,13.62,0,0,0,.5-4.28,5.85,5.85,0,0,1,.16-2.47c-.11-.76.39-1.42,1.48-2a4.17,4.17,0,0,1,3.62,0,3.66,3.66,0,0,1,1.07-1.56,2.18,2.18,0,0,1,1.32-.41,7.5,7.5,0,0,1,1.73.24,18.13,18.13,0,0,0,2.46.41l3.29-1,7.24-.33,4.77.82,7.41.66,3.62-.17-.33-3.78-1.81-1.81L305,126A3.27,3.27,0,0,0,303.3,125c-.49,0-.47-.19.08-.41l-2.47.82c0-.21-.16-.3-.49-.24a4,4,0,0,0-1.15.41,3.88,3.88,0,0,0-1.07.74c-.28.27-.36.52-.25.74l-7.89-1.15-5.1-.17-6.59.5a16.09,16.09,0,0,0-4-1.65,10.31,10.31,0,0,0-4,.17,8.07,8.07,0,0,0,.17-2.72,5.35,5.35,0,0,0-.58-1.81,11.54,11.54,0,0,1-.66-1.4,2.49,2.49,0,0,1,.09-1.64,1.06,1.06,0,0,1-.25-1.15,4.74,4.74,0,0,1,.66-1c.27-.33.52-.66.74-1a.72.72,0,0,0-.17-1,3.7,3.7,0,0,1,2.64-3.12,8.4,8.4,0,0,1,4.93-.17,7.07,7.07,0,0,0,2.63-.16q1.32-.33,4.28,1.15a1.9,1.9,0,0,1,1.4-.49,5.84,5.84,0,0,1,1.73.25c.54.16,1,.32,1.48.49l.66.25,8.39-1.49,7.56,2c.33-.55.63-.85.91-.91a1.15,1.15,0,0,1,.74.09,1.88,1.88,0,0,1,.49.33c.11.11.17.11.17,0a12.81,12.81,0,0,0,3.12.24,8.77,8.77,0,0,1,2.64.25,5.77,5.77,0,0,1,3.29,2.3c.87,1.21,1.15,2.09.82,2.64l.49,2.63-.49-2,2.3,2.47-1.31,9.71q-.49,0-.33.66c.11.43.27,1,.49,1.64a12.14,12.14,0,0,1,.49,2.22,5.81,5.81,0,0,1-.16,2.39c-.66,0-1,.44-1,1.31a17.84,17.84,0,0,0,.33,3.13c-.44-.11-.71,0-.82.25a8.25,8.25,0,0,0-.33,1.07,4.54,4.54,0,0,1-.58,1.31,3.27,3.27,0,0,1-1.56,1.15c.11.22,0,.25-.25.09s-.74-.09-1.39.24c-1.1.66-2.09,1.24-3,1.73s-1.48.47-1.81-.08a8.15,8.15,0,0,1-3.45-.08c-1.1-.28-2.25.24-3.46,1.56a10.9,10.9,0,0,0-5.67-2.06,27.1,27.1,0,0,0-4.85.25c.21-.11-.42-.19-1.9-.25a16.28,16.28,0,0,0-5.34.91l-1.81.49-.66,1.15,2.3,3.13a15.61,15.61,0,0,0-1.15,1.64q-.17.33,0-.33a12,12,0,0,1,.74,1.9c.06.27.36.35.91.24,1.64,0,2.85,0,3.61.09s1.05-.36.83-1.24a48.12,48.12,0,0,1,5.51.82,3.77,3.77,0,0,0,3.7-1,19.7,19.7,0,0,0,6,1.31,28.37,28.37,0,0,1,4.35.33,11.53,11.53,0,0,1,2.56-1.56,3.56,3.56,0,0,1,2.38.57l1.81-.24a1.35,1.35,0,0,1,1,.16,4,4,0,0,1,.74.83c.27.38.74.95,1.4,1.72a3,3,0,0,1,1.15,1.81,8.45,8.45,0,0,1,.49,2.63,5.19,5.19,0,0,1-.16,2.47,10.39,10.39,0,0,0-.33,3.46,3.36,3.36,0,0,0-3-.58,13.4,13.4,0,0,1-4.12.25,16.34,16.34,0,0,0-2.79.41,6.68,6.68,0,0,0-3.62,2.22,7.4,7.4,0,0,0-2.39-.58,30.77,30.77,0,0,0-4.36.25l-7.24-.66L287.26,170a7.79,7.79,0,0,0-3.87-.49,19.53,19.53,0,0,1-5.84-.66,12,12,0,0,1-3.37-1.15,29,29,0,0,1-4.2-3l-.16.16A10.13,10.13,0,0,1,268.34,160.92ZM270.07,92a9,9,0,0,1-.91-1.57,10.06,10.06,0,0,1-.49-1.31,1.57,1.57,0,0,0-.66-.91,2,2,0,0,1,0-1.15,7.18,7.18,0,0,0,.25-1,2.51,2.51,0,0,0-.09-1.07,4.92,4.92,0,0,0-1-1.56c.87-.11,1.29-.85,1.23-2.22a9,9,0,0,0-.9-3.7c-.66.11-.85-.52-.58-1.89s.52-2.83.74-4.36a3.47,3.47,0,0,1-.58-1,1.47,1.47,0,0,1,0-.66,1.54,1.54,0,0,0,0-.74,6.44,6.44,0,0,0-.57-1.4,3.06,3.06,0,0,1-.25-1.48,12.08,12.08,0,0,1,.25-1.31,9.62,9.62,0,0,0,.16-3.79,4.08,4.08,0,0,0,.66-2.71,4.72,4.72,0,0,0-.49-1.89c-.55-.33-.69-1.07-.41-2.23a15.42,15.42,0,0,0,.41-3.53,6.58,6.58,0,0,0,1.4-4.28,17.58,17.58,0,0,1,.57-4.44c.88-1.76,1.43-2.91,1.65-3.46s1.09-.76,2.63-.66a1.69,1.69,0,0,1,2-1.39c1.1.05,2.75.19,4.94.41.22-.22,1.12-.28,2.71-.17a16.23,16.23,0,0,0,6.17-1.15l9.71,2.3a5.11,5.11,0,0,1,3.46-2.13c1.42-.22,2.63-.44,3.61-.66,0,.66.14,1,.42,1.15a2.66,2.66,0,0,0,1.23.08c.55-.05,1.15-.13,1.81-.24a7,7,0,0,1,2.14,0,4.59,4.59,0,0,0,2.47-.58A5.32,5.32,0,0,1,317,34.9a2.44,2.44,0,0,0,1.31.9,13.86,13.86,0,0,0,1.81.41,13.81,13.81,0,0,1,1.81.42,3,3,0,0,1,1.32.74c0-.44.14-.39.41.16a28.22,28.22,0,0,1,1.23,3.78,1.42,1.42,0,0,1,1.15-.16,2.46,2.46,0,0,1,1.16.66,4.92,4.92,0,0,1,.82,1.07,2,2,0,0,1,.33.9,5.68,5.68,0,0,0-.08,1.65,10,10,0,0,0,.24,1.31c.11.44.22.94.33,1.48a12.38,12.38,0,0,1,.17,2.31c-.33.11-.47.74-.41,1.89s0,2.71-.09,4.69q2.15,1.65.33,4.6a13.51,13.51,0,0,1-.16,3.79,4.21,4.21,0,0,0,.16,2.63,8.23,8.23,0,0,1,.58,3.21c-.06.93-.08,1.84-.08,2.71a1.72,1.72,0,0,0-.25,1.07,6.65,6.65,0,0,0,.25.91,5.66,5.66,0,0,1,.24,1.15,6.94,6.94,0,0,1-.08,1.81,2,2,0,0,0-.08,2.14,11.68,11.68,0,0,0,1.07,1.81,5.44,5.44,0,0,1-.58,3,9,9,0,0,1-2.88,1.89,6.23,6.23,0,0,1,.33,2,4.56,4.56,0,0,1-.25,1.64,4.89,4.89,0,0,1-.41.91c-.11.16-.11.08,0-.25q-4.77,5.26-7.07,2.14-.82,2.79-2.55,2.55a6.39,6.39,0,0,1-2.88-1.07c0,1-2.08,2.19-6.25,3.62,0-.22-.28-.44-.82-.66a8.88,8.88,0,0,0-1.81-.49,5,5,0,0,0-1.81,0,1.17,1.17,0,0,0-1,1,2,2,0,0,0-2.3-1A23.05,23.05,0,0,0,296,99.88a3.53,3.53,0,0,0-.33-1.07.84.84,0,0,0-.58-.32,9,9,0,0,1-.9-.25,5.56,5.56,0,0,1-1.48-1,5.63,5.63,0,0,1-2.63,1.07,10.51,10.51,0,0,1-2.31-.08,11,11,0,0,0-2.38-.08,6.55,6.55,0,0,0-2.88,1.07,2.26,2.26,0,0,0-.74-1.57,5,5,0,0,0-1.4-.66,8.85,8.85,0,0,0-1.81-.32,8.75,8.75,0,0,1-2-.42,5.49,5.49,0,0,1-1.81-.24,4.38,4.38,0,0,1-1.23-.74q-.57-.5-1.23-1a5.78,5.78,0,0,0-1.65-.82H272A4.89,4.89,0,0,1,270.07,92Zm17.35-9.79c1.32.6,2.58,1.23,3.79,1.89a5.26,5.26,0,0,0,3.45-.74c1.43-.71,2.85-1.34,4.28-1.89.66,1.53,1.32,2.41,2,2.63s1.92,0,3.79-.49a4.26,4.26,0,0,1,2.71-1.16c1.15-.11,1.67,0,1.56.17,1.1-.44,1.84-.74,2.23-.91l.57-.24-.16.08-.17.08.66-3.78c.33.55.77.57,1.32.08a16.19,16.19,0,0,0,1.64-1.73,14,14,0,0,1-.9-4.36,7.44,7.44,0,0,1,.74-4.52,2.25,2.25,0,0,1-.91-1.56,4.19,4.19,0,0,1,.25-1.81,11.51,11.51,0,0,1,.74-1.65,8,8,0,0,0,.58-1.23,7,7,0,0,1-1-2.14,4.48,4.48,0,0,1-.08-1.48l.16-1.32a5.61,5.61,0,0,0-.08-1.64l-.33-3-.49,1.81a8.31,8.31,0,0,1-1.07-1.81c-.17-.43-.3-.76-.41-1s-.22-.33-.33-.33a4.75,4.75,0,0,0-.83.16l-4.93,1-7.57-.82-5.92-1-6.42.82c-.77-.55-1.34-.46-1.73.25a22.87,22.87,0,0,0-1.23,2.88c.22-.33.36-.41.41-.25a1.5,1.5,0,0,1,0,.74,3.12,3.12,0,0,1-.41,1.07,1.49,1.49,0,0,1-.82.74l2.79,4-2.63,7.9,1,3.62-1.48,5.26c1.53.77,2.44,1.62,2.71,2.55s.14,1.56-.41,1.89l-1.31.33A10,10,0,0,1,287.42,82.2Zm37.18,46a7.84,7.84,0,0,1-1-2.14,4.42,4.42,0,0,1-2.31-2.47c-.22-.87-.38-1.15-.49-.82-.88-2-1.15-3.23-.82-3.78a5.53,5.53,0,0,1,2.79-1.65c.77-1.53,1.51-2.33,2.23-2.38a20.71,20.71,0,0,1,3.7.24c.22-.43.85-.74,1.89-.9a14.18,14.18,0,0,0,3.87-1.4c.22.66.76.8,1.64.41a6.07,6.07,0,0,1,3.62-.08,3.19,3.19,0,0,0,2.14,1.15,19.53,19.53,0,0,0,3.62,0c-.11,0,0-.08.33-.25l1.23-.57c.49-.22,1-.47,1.48-.74a1.8,1.8,0,0,0,.91-.91,24.07,24.07,0,0,1,3.78,1.48,13.78,13.78,0,0,0,4.94,1.32,10.11,10.11,0,0,1,2.05,1,11.2,11.2,0,0,1,1.57,2.14,6.39,6.39,0,0,0,.57,2.71,6.64,6.64,0,0,1,.58,2.88,9.68,9.68,0,0,0,.24,3.54,17.12,17.12,0,0,1,.58,2,10.1,10.1,0,0,0,.25,2.47c.16.66.33,1.24.49,1.73a7.08,7.08,0,0,1,.33,1.56,5.52,5.52,0,0,1-.25,2,2.47,2.47,0,0,1-.16.65,6.71,6.71,0,0,0-.25,1.07,1.77,1.77,0,0,0,.17,1.07c.16.33.57.5,1.23.5a3.73,3.73,0,0,0-.49,1.39c-.11.61-.25,1.24-.41,1.9A6.09,6.09,0,0,1,364,145a.93.93,0,0,1-1.07.5,8.91,8.91,0,0,0,.33,3,2.5,2.5,0,0,1-.33,2.06,10.59,10.59,0,0,1,.9,4c0,.93-.35,1.18-.9.74a7.84,7.84,0,0,1,.16,4.19,4,4,0,0,0,.33,3.21,5.35,5.35,0,0,1-2.71,4.44,5.42,5.42,0,0,1-5.19,0,1.72,1.72,0,0,1-2.3.83,4,4,0,0,1-2.47-2.14c-1.53.54-2.3.46-2.3-.25a22.92,22.92,0,0,0-1.15-4.85l1.81-1c-.77,0-.93-.39-.5-1.15a5.53,5.53,0,0,0,.33-3.46c0-.87,0-1.7.09-2.47a3.63,3.63,0,0,1,.9-2.13,31.16,31.16,0,0,1-1-4c-.11-.83-.65-1.13-1.64-.91a13,13,0,0,0,1.64-4.44,5.69,5.69,0,0,1,1-2.8c-.22,0-.38-.22-.49-.66a10.07,10.07,0,0,1-.25-1.31,10.18,10.18,0,0,1-.08-1.07c0-.28.05-.36.16-.25l.83-3.78-2.64-.17a2.64,2.64,0,0,0-.24-2.22c-.39-.49-1.35-.41-2.88.25l-5.1-1.15-4.94,2.3-6.09-1.15-.65-1.65Q325.26,129.17,324.6,128.18Zm22.38-35a19,19,0,0,1,0-3.54,6.08,6.08,0,0,0,.25-1.72A4.31,4.31,0,0,0,347,85.9c.11-1.1.16-2.41.16-4a5.33,5.33,0,0,0-.65-3.12c-.77-.55-.83-1.24-.17-2.06a8.34,8.34,0,0,0,1.32-4.2.79.79,0,0,1-.83-.65,7.09,7.09,0,0,1-.16-1.57V68.63a2.88,2.88,0,0,0-.16-1.16,5.63,5.63,0,0,1-.66-3.45,2.93,2.93,0,0,1,1.81-1.81,6.25,6.25,0,0,0-.5-3.87c-.54-1-1-1.89-1.31-2.55-.11.22.19-.11.9-1s1.13-2.42,1.24-4.61a12.15,12.15,0,0,1-.5-2.47c-.11-1,.11-1.59.66-1.81a4.22,4.22,0,0,0-.16-2.06c-.22-.6-.42-1.17-.58-1.72a3.92,3.92,0,0,1-.16-1.57,2.72,2.72,0,0,1,.9-1.56,4.1,4.1,0,0,1-1.23-1.07.62.62,0,0,1,.16-.82,8.71,8.71,0,0,1,1.32-1,8.83,8.83,0,0,0,1.89-1.73,2.59,2.59,0,0,1,1.89-2l2.72-.66a5.63,5.63,0,0,0,2.79,2.06,11.85,11.85,0,0,1,3.79,2.22,2.61,2.61,0,0,0,1.15,1.48c.55.33,1.15,1.59,1.81,3.78v4.94l-1,8.23,1.15,6.91a5.92,5.92,0,0,0,3.21-.66,16.71,16.71,0,0,1,3-1.15A37,37,0,0,1,375.52,61c.94.39,1.46,1.35,1.57,2.88q3.95.5,4,5.43a3.76,3.76,0,0,0-1.81,1.48,3.69,3.69,0,0,0-.66,2.64A5.9,5.9,0,0,1,375.93,75q-1.31.33-3.12.66l-2.3-.49L364.25,77l-2,6.41,2.47,4.44-1,9-2,.83c.43,0,.57.19.41.57a4.78,4.78,0,0,1-.82,1.23c-.39.44-.75.85-1.07,1.24s-.5.63-.5.74a6,6,0,0,1-1.89.33,13.92,13.92,0,0,1-1.56-.08,8,8,0,0,0-1-.09q-.33,0,0,.33a4.93,4.93,0,0,1-3.29.17c-.88-.33-1.7-.66-2.47-1a7.22,7.22,0,0,0-2-2.8c-.55-.33-.93-1.26-1.15-2.79L348,97.09A14.9,14.9,0,0,1,347,93.22Z" transform="translate(-8.05 -29.55)"/>
    <path class="cls-1" d="M399.71,115.76c-.49,0-.9.08-1.23.08a3.11,3.11,0,0,1-1-.16q-.5-.17-1.65-.66a1.42,1.42,0,0,0-.16-1.23,3.49,3.49,0,0,0-.82-.75,5.36,5.36,0,0,1-.91-.74,1.94,1.94,0,0,1-.41-1.39,7.72,7.72,0,0,0,1.4-2.22,18.19,18.19,0,0,1,.74-1.73,3.21,3.21,0,0,1,.82-1.07,2.25,2.25,0,0,1,1.48-.41,5.05,5.05,0,0,1,.83-2.88c.54-.82,1.64-.8,3.29.08q2.79-1.32,3.78-.9a1.83,1.83,0,0,1,1.15,1.56,24.63,24.63,0,0,1,4.77-.41,3.71,3.71,0,0,0,2.64-.74,5.28,5.28,0,0,1,3,.65,14.84,14.84,0,0,1,2.55,1.65,12.26,12.26,0,0,1,4.28-1.81,9.82,9.82,0,0,1,3.95-.16,4.07,4.07,0,0,0,1.23,1.31,7.68,7.68,0,0,0,3.54.5c.33-.11.9-.33,1.72-.66a3.17,3.17,0,0,1,2.22-.17,6.77,6.77,0,0,0,4,.66c1.26-.22,1.94,0,2.05.49a6.37,6.37,0,0,0,3.54-.32,11.9,11.9,0,0,1,1.73-.66,8.42,8.42,0,0,0,4.44.49l3.78-.49a15.64,15.64,0,0,1,2,.24c1,.17,1.86-.35,2.63-1.56a8.48,8.48,0,0,0,2.88,1.23c1.37.39,2.11.14,2.22-.74a5.74,5.74,0,0,0,3.62.42c1.1-.28,2-.47,2.63-.58.88.22,1.62.41,2.22.58s1.21.3,1.81.41a18.2,18.2,0,0,0,2,.24l2.71.25a3.22,3.22,0,0,1,1.81-1.07,3.87,3.87,0,0,1,1.4.08,1.9,1.9,0,0,0,.9.09c.22-.06.39-.42.5-1.07a3.25,3.25,0,0,0,1.48.33,14.88,14.88,0,0,0,1.64-.09,7.29,7.29,0,0,1,1.48,0,.9.9,0,0,1,.83.58,19.51,19.51,0,0,1,5,1.07c1.27.49,1.84.68,1.73.57a3.52,3.52,0,0,1,2.31,2.06A5.44,5.44,0,0,0,502,109.1a16.81,16.81,0,0,1-.16,2.63,7.21,7.21,0,0,1-.5,1.73,5.28,5.28,0,0,1-.82,1.31l-1.32,1.57a5.8,5.8,0,0,1-1.72.33,10.35,10.35,0,0,0-1.4.08,4,4,0,0,0-1.32.41,5.17,5.17,0,0,0-1.48,1.31,4.38,4.38,0,0,1-1.56.09,16.23,16.23,0,0,1-3.7-1.07c-.88,0-1.65,0-2.31-.08a21.63,21.63,0,0,1-3.29-.74c-.33,1.2-.79,1.78-1.4,1.72s-1.72-.79-3.37-2.22a3.11,3.11,0,0,1-2.3,1.4,1.64,1.64,0,0,0-1.65,1.07l-8.22-1-3-1.31-6.59,1-5.1-1-8.39.82c-.43.55-.76.82-1,.82a4.16,4.16,0,0,1-.74-.08,4.18,4.18,0,0,0-1.24,0,6.51,6.51,0,0,0-2.3.9c.22-1-.27-1.39-1.48-1.23s-2.36.36-3.46.58c.44.32.2.57-.74.74a13.83,13.83,0,0,1-2.22.24,25,25,0,0,0-4.44-1.56,7.44,7.44,0,0,0-3.62.58,3.62,3.62,0,0,1-1.81-.17l-3-1a9.86,9.86,0,0,1-.91.42,2.25,2.25,0,0,1-.65.08,2.86,2.86,0,0,0-.91.16c-.33.11-.88.33-1.64.66a4,4,0,0,0-2.88-1.23,33.2,33.2,0,0,0-4,.57c.11-.22-.33-.24-1.32-.08a4.49,4.49,0,0,1-2.8-.41l.83-1.48C401,115.68,400.21,115.71,399.71,115.76Zm-.16,49.36a14.15,14.15,0,0,0-.25-4.36c-.22-.11-.38-.91-.49-2.39a14.47,14.47,0,0,1,.16-3.87l-2-5.92.82-6.74a5.63,5.63,0,0,0-.08-2.14q-.25-1,1.56-3.95c-.33-.44-.36-.82-.08-1.15a9,9,0,0,1,1.07-1.07c.44-.39.9-.82,1.4-1.32a5.76,5.76,0,0,0,1.23-2.05,3.69,3.69,0,0,0,1.4-.58c.38-.27.82-.58,1.31-.91a7.11,7.11,0,0,1,2-.82,13.55,13.55,0,0,1,3.37-.33,8.41,8.41,0,0,0,2.3,1.81c.55.22.72.5.5.83,1-.55,1.75-1,2.3-1.24a2.39,2.39,0,0,1,1.32-.33,1.52,1.52,0,0,1,.9.58c.28.33.63.77,1.07,1.31a8.61,8.61,0,0,1,2.14-1.48,6.29,6.29,0,0,1,1.48-.41,10.18,10.18,0,0,1,1.07-.08.91.91,0,0,0,.74-.49,3.9,3.9,0,0,0,3.54,1.89,18.53,18.53,0,0,0,2.88-.25c0,.22.6.44,1.81.66a23,23,0,0,0,4.11.33,9.83,9.83,0,0,1,2.39-.82A5,5,0,0,0,442.4,128a7.66,7.66,0,0,1,1.4.08,5.35,5.35,0,0,1,.66.16,2.84,2.84,0,0,1,.41.17,5.64,5.64,0,0,0,1,.24c1.1,0,2,0,2.71-.08s1.32-.08,1.81-.08h1.4a8.42,8.42,0,0,1,1.48.16,1,1,0,0,0,1,.42l1.48-.17c.55,0,1.1-.08,1.65-.08a3.17,3.17,0,0,1,1.64.49,2.89,2.89,0,0,1,1.07.17,2.42,2.42,0,0,0,.91.16,4.17,4.17,0,0,0,1.23-.24l2.22-.75c0,.22.6.61,1.81,1.16a17.7,17.7,0,0,0,2.47,1c1,0,2.16,0,3.53-.08a27,27,0,0,0,3.87-.41,4.9,4.9,0,0,1,3.37-1.89l3.38-.41a21.9,21.9,0,0,0,5.59,1.56,10.28,10.28,0,0,1,3.29.74c-.33.55-.19,1.21.41,2a20.77,20.77,0,0,1,1.4,2,4.43,4.43,0,0,1,1.4,3,4.39,4.39,0,0,0,1.4,3,4.32,4.32,0,0,1,.57,2.3,2.78,2.78,0,0,1-1.73,2.64l1.65,8.22-.49,4.94.16,2-.33.5-1.81,1.31a2,2,0,0,1,.41,1.24,2.13,2.13,0,0,1-.49.9,13,13,0,0,1-1,1.07,4,4,0,0,0-.9,1.56,6.06,6.06,0,0,1-1.15,1,6,6,0,0,0-.58.33,5.76,5.76,0,0,1-.57.33,2.8,2.8,0,0,0-.83.82,2.44,2.44,0,0,0-2.14-.49,14.85,14.85,0,0,0-2.63,1.64c-1.1,0-2.49,0-4.19.08a20.6,20.6,0,0,1-3.54-.08c-2.08.22-3.79.44-5.1.66a4.6,4.6,0,0,1-3.29-.49,12.4,12.4,0,0,1-2.63.41,5.47,5.47,0,0,1-3-.74l-2.46.66a7.42,7.42,0,0,0-3,1.48,2.82,2.82,0,0,0-.75-1.32,1.64,1.64,0,0,0-1.06-.33c-.44,0-.94,0-1.49-.08a6.86,6.86,0,0,1-2-.58,3.42,3.42,0,0,1-2.63,1.32,1.69,1.69,0,0,1-1.81-1.48,1.37,1.37,0,0,1-1.07.57,9.69,9.69,0,0,0-1.56.33,4,4,0,0,0-1.4.74,2.38,2.38,0,0,0-.74,1.48c-1.1-.43-2-.79-2.63-1.06s-1.21-.5-1.65-.66a5.39,5.39,0,0,0-1.23-.33,6.49,6.49,0,0,1-1.4-.41c-.33,0-.74,0-1.24.08a5.23,5.23,0,0,0-1.39.33,6,6,0,0,0-1.16.57c-.32.22-.43.44-.32.66a8.48,8.48,0,0,1-3.54-1,4.22,4.22,0,0,0-3-.33,1.45,1.45,0,0,1-1,1,6,6,0,0,1-1.73.41,4.54,4.54,0,0,1-1.73-.16c-.55-.16-.82-.36-.82-.58q-6.42.49-7.57-2.46a4.21,4.21,0,0,0-3.37.65,8.71,8.71,0,0,1-2.72,1.49,6.29,6.29,0,0,1-2.38-2,7,7,0,0,0-2.22-2l-1.15,1A4,4,0,0,1,399.55,165.12Zm3-104.15c.11-1.48.38-2.33.82-2.55-1.2-1.31-1.62-2.33-1.23-3a24.91,24.91,0,0,0,1.4-3.54c1-.33,1.84-.63,2.55-.9s1.07-1.07,1.07-2.39c0-.44.44-1,1.31-1.81s1.59-1.42,2.14-2a1.69,1.69,0,0,0,1.48.25,4,4,0,0,0,1.15-.66c.33-.28.64-.55.91-.82a1.23,1.23,0,0,1,.9-.42,2.6,2.6,0,0,1,2.39-1.64c1,0,1.51-.06,1.4-.17a10.52,10.52,0,0,1,1.48-.74,10,10,0,0,1,1.81-.57,4.48,4.48,0,0,1,1.48-.08c.44,0,.6.24.49.57q3.3-.33,4.44-.33a12.33,12.33,0,0,1,2.64.33,3.06,3.06,0,0,1,.82-1.4,1.65,1.65,0,0,1,1.07-.41,5.66,5.66,0,0,1,1,.08,1.09,1.09,0,0,0,.74-.08,20.12,20.12,0,0,1,2.3-.66,5.21,5.21,0,0,1,1.56-.08,12.31,12.31,0,0,1,1.65.33c.6.17,1.4.36,2.38.58,0-.88.41-1.1,1.24-.66a6.28,6.28,0,0,0,3.7.33,2.4,2.4,0,0,0,1.4.24,14.52,14.52,0,0,1,1.48-.08,5.77,5.77,0,0,1,1.4.17,2.66,2.66,0,0,1,1.31,1,5,5,0,0,0,2.22-1.15c.61-.55,1-.77,1.24-.66a3.2,3.2,0,0,0,3,1.16,24.4,24.4,0,0,0,4.85-1c-.43-.22-.16,0,.83.66A9.8,9.8,0,0,0,470.21,40a3.4,3.4,0,0,1,2.3.16c.88.33,1.15.77.82,1.32a15.89,15.89,0,0,1,4.2.33q.9.33.9.66A3.76,3.76,0,0,0,480,43.86a7.27,7.27,0,0,0,1.89.58c.66.11,1.29.19,1.89.25a6,6,0,0,1,1.73.41l.24.57a10.14,10.14,0,0,0,.66,1.24,2.67,2.67,0,0,0,1.07,1,1.5,1.5,0,0,0,1.48-.17,1.8,1.8,0,0,1,.91,1.15c.16.55.33,1.13.49,1.73a6.21,6.21,0,0,0,.66,1.56,1.81,1.81,0,0,0,1.23.83.78.78,0,0,1,.58.65,6.42,6.42,0,0,1,0,1.4c-.06.61-.08,1.29-.08,2.06a12.24,12.24,0,0,0,.33,2.63,16.42,16.42,0,0,0,2.63,3.78,56.87,56.87,0,0,0-.66,7.24,27.07,27.07,0,0,0-2.55,3,5.12,5.12,0,0,0-1.23,2.3,5.42,5.42,0,0,1-1.4,4.11,23.21,23.21,0,0,0-2.06,2.14,5.69,5.69,0,0,0-2.8,1c-.76.55-1,.93-.82,1.15a16,16,0,0,0-4.36.25,6,6,0,0,0-3.54,2.22c0,.33-.19.49-.57.49a3.38,3.38,0,0,1-1.07-.16,2.89,2.89,0,0,0-.9-.17c-.28,0-.31.17-.09.49a2.91,2.91,0,0,0-1.89,0q-.9.33-1.89.75l-2,.82a3.58,3.58,0,0,1-2,.24c.11-.43.06-.71-.16-.82a1.52,1.52,0,0,0-.91-.08l-1.23.16a1.3,1.3,0,0,1-1.15-.41c-2,.55-3.35.91-4.12,1.07a15.32,15.32,0,0,1-3.78.08,1.57,1.57,0,0,1-1.32.42l-1.81-.17c-.66,0-1.4-.08-2.22-.08a5.62,5.62,0,0,0-2.71.82c-.33.44-1,.52-2,.25a8.6,8.6,0,0,0-3.62-.08,16.73,16.73,0,0,1-1.64-1.57c-.11-.16-.71,0-1.81.41a20.52,20.52,0,0,1-2.22-.08l-1.4-.16a6.09,6.09,0,0,0-1.48,0,10,10,0,0,0-2.47.74,6.11,6.11,0,0,0-2.22-.33h-1.23a4.8,4.8,0,0,0-1.73-1.15c-.6-.22-1.24-.41-1.89-.58a12.77,12.77,0,0,1-2-.66,3.61,3.61,0,0,1-1.64-1.4c-.22.55-.44.83-.66.83a2.06,2.06,0,0,1-.91-.33,4.74,4.74,0,0,0-1.23-.5,2.52,2.52,0,0,0-1.65.33,2.2,2.2,0,0,0-.9-1.15,6.72,6.72,0,0,0-1.32-.57A8.36,8.36,0,0,1,411,83.6,5.69,5.69,0,0,1,409.34,82c-.33.11-.55.08-.66-.08a2,2,0,0,1-.25-.66,3.21,3.21,0,0,0-.33-.9,1.91,1.91,0,0,0-1.07-.83,8.11,8.11,0,0,0-1.64-2.38,1.94,1.94,0,0,1-.5-2.06.71.71,0,0,1-1-.16,3.2,3.2,0,0,1-.74-1.15,5.33,5.33,0,0,1-.33-1.24c-.06-.38,0-.52.08-.41a6.78,6.78,0,0,1-1-2.22,6,6,0,0,1-.08-1.73,15.13,15.13,0,0,0,.08-1.64,7.4,7.4,0,0,0-.33-2l1.65.17A6.52,6.52,0,0,1,402.59,61ZM419,155.66c1,.22,2.42.54,4.28,1a2.05,2.05,0,0,1,2.63-.74,8.39,8.39,0,0,1,2.8,1.4,5.42,5.42,0,0,1,1.89-1.48,1.9,1.9,0,0,1,2.22.66,13.37,13.37,0,0,1,3.62-.58,18.45,18.45,0,0,1,3.95.25,6.71,6.71,0,0,1,3-.82c.88,0,1.21.55,1,1.64a26.56,26.56,0,0,0,3.12-.82,5.8,5.8,0,0,1,4.28.33c.11.44.66.52,1.65.25a2.84,2.84,0,0,0,1.81-1.07,4,4,0,0,0,1.72.24l1.49-.16a7.47,7.47,0,0,1,1.64,0,8,8,0,0,1,2.39.74c-.33-.55,0-.85.9-.91a9,9,0,0,1,4,1.24,6.22,6.22,0,0,1,2.63-.41c.88,0,1.7.13,2.47.24a14.73,14.73,0,0,0,2.06.17,3.27,3.27,0,0,0,1.72-.5,7,7,0,0,1,1.57-1.15A8.76,8.76,0,0,0,479.5,154a4.3,4.3,0,0,0,1.16-1.81,7.72,7.72,0,0,0,.08-3.45h-.5l-1-2.8.66-2.14-3.13.66a5.09,5.09,0,0,0-2.14-.33,5.63,5.63,0,0,1-2.47-.49,12.05,12.05,0,0,1-3.12,1c-1.21.22-1.92.61-2.14,1.16a6.47,6.47,0,0,0-4.53-.58q-2.06.57-1.89.9c-.66-.32-1.23-.63-1.73-.9s-1-.55-1.56-.82a6.34,6.34,0,0,0-2-.58,23.36,23.36,0,0,0-3.13-.16,10.63,10.63,0,0,0-1.81.57,3.42,3.42,0,0,1-2-.08,10.52,10.52,0,0,1-3.46,1.4,12.12,12.12,0,0,1-4.6.25,2,2,0,0,0-1.4-.66,3.57,3.57,0,0,0-1.48.33c-.5.21-1,.43-1.4.65a1.5,1.5,0,0,1-1.15.17,16.92,16.92,0,0,0-5.19-1.4,8.87,8.87,0,0,1-2.71-.41,15.23,15.23,0,0,0-5.18.49,6.46,6.46,0,0,1-4.69-.49,3.6,3.6,0,0,0-1.81.08c-.33.17-.38,1-.17,2.39l-.82,3.12.17,2-1,1.81a11.12,11.12,0,0,1,1.89.41,4.54,4.54,0,0,1,2.55,1.73v-1.32C417.67,155.11,418.06,155.44,419,155.66Zm15.47-80.95c1.53-.33,2.52-.33,3,0a19.27,19.27,0,0,0,3.78.25c1.1-.06,2.09-.11,3-.17a12.44,12.44,0,0,1,2.47.09A3.76,3.76,0,0,1,448.82,76l4.28-1.81,7.57.16c.54,0,1.37,0,2.46.09a8.3,8.3,0,0,1,3.79,1.39c.87-1.2,3.34-1.81,7.4-1.81a4,4,0,0,1,.33-2.88,19.55,19.55,0,0,1,2-2.54c.11.1.28,0,.5-.33a4.94,4.94,0,0,0,.57-1.24,6.71,6.71,0,0,0,.33-1.64,1.64,1.64,0,0,0-.41-1.4,8.22,8.22,0,0,1,.66-2.06q.33-.57-1-2.55a12.74,12.74,0,0,0-1.64-1.4l-2.31-1.56c-.11.11-.35.08-.74-.08s-.79-.33-1.23-.5a5.77,5.77,0,0,0-1.32-.32,1.61,1.61,0,0,0-1.15.24q-3-1.3-4.85-2a4.46,4.46,0,0,1-2.39-1.48,5.1,5.1,0,0,1-1.64.57,4.29,4.29,0,0,1-1.24,0,4.32,4.32,0,0,0-1.39.09,6.61,6.61,0,0,0-2,.82,5.65,5.65,0,0,0-2.63-.91c-.88,0-1.67-.08-2.39-.08h-2.05a2.24,2.24,0,0,1-1.65-.66,3.34,3.34,0,0,1-1.64,1,5,5,0,0,1-1.81,0l-2.31-.41c-.87-.17-1.86-.3-3-.41a42.12,42.12,0,0,0-4.52,1,36.08,36.08,0,0,1-4.86,1A3.14,3.14,0,0,1,426,55.79a13.26,13.26,0,0,0-4.19,1.32c.22-.22.05,0-.49.57a1.79,1.79,0,0,0-.33,2.06,2.7,2.7,0,0,0-1.73.82,5.37,5.37,0,0,0-.91,1.48c-.21.55-.41,1.05-.57,1.48s-.41.66-.74.66a11.34,11.34,0,0,0,1,2.47,4.51,4.51,0,0,0,1,1.23c.33.28.63.55.91.83a3.66,3.66,0,0,1,.74,1.23,9.24,9.24,0,0,0,3.78,3.13,6.08,6.08,0,0,0,4.61.66h-1.65Q432.2,75.2,434.51,74.71Z" transform="translate(-8.05 -29.55)"/>
  </g>
</svg>
